<mxfile host="Electron" agent="Mozilla/5.0 (Windows NT 10.0; Win64; x64) AppleWebKit/537.36 (KHTML, like Gecko) draw.io/26.2.2 Chrome/134.0.6998.178 Electron/35.1.2 Safari/537.36" version="26.2.2">
  <diagram name="Страница — 1" id="eEJLwxELiL-s8XPJDTaM">
    <mxGraphModel dx="1428" dy="841" grid="1" gridSize="10" guides="1" tooltips="1" connect="1" arrows="1" fold="1" page="1" pageScale="1" pageWidth="827" pageHeight="1169" math="0" shadow="0">
      <root>
        <mxCell id="0" />
        <mxCell id="1" parent="0" />
        <mxCell id="Ng7Id-YGI_FBTDMfPWWw-42" value="Пользователь" style="swimlane;horizontal=0;whiteSpace=wrap;html=1;swimlaneFillColor=light-dark(#a7e6b2, #ededed);swimlaneLine=1;fillColor=#008a00;fontColor=#ffffff;strokeColor=none;" parent="1" vertex="1">
          <mxGeometry x="30" y="470" width="670" height="130" as="geometry" />
        </mxCell>
        <mxCell id="Ng7Id-YGI_FBTDMfPWWw-43" value="Анализ данных" style="swimlane;horizontal=0;whiteSpace=wrap;html=1;separatorColor=none;glass=0;shadow=0;fillStyle=auto;swimlaneLine=1;labelBackgroundColor=light-dark(default, #ffffff);fillColor=#0050ef;swimlaneFillColor=#B8BFFF;strokeColor=#001DBC;fontColor=#ffffff;" parent="Ng7Id-YGI_FBTDMfPWWw-42" vertex="1">
          <mxGeometry y="130" width="670" height="180" as="geometry" />
        </mxCell>
        <mxCell id="Ng7Id-YGI_FBTDMfPWWw-41" value="Сбор данных" style="swimlane;horizontal=0;whiteSpace=wrap;html=1;startSize=23;swimlaneFillColor=light-dark(#ffbbd4, #ededed);fillColor=#a20025;fillStyle=solid;strokeColor=#6F0000;swimlaneLine=0;fontColor=#ffffff;" parent="1" vertex="1">
          <mxGeometry x="30" y="220" width="670" height="250" as="geometry" />
        </mxCell>
        <mxCell id="Ng7Id-YGI_FBTDMfPWWw-4" style="edgeStyle=orthogonalEdgeStyle;rounded=0;orthogonalLoop=1;jettySize=auto;html=1;exitX=1;exitY=0.5;exitDx=0;exitDy=0;entryX=0;entryY=0.5;entryDx=0;entryDy=0;" parent="1" source="Ng7Id-YGI_FBTDMfPWWw-1" target="Ng7Id-YGI_FBTDMfPWWw-3" edge="1">
          <mxGeometry relative="1" as="geometry" />
        </mxCell>
        <mxCell id="Ng7Id-YGI_FBTDMfPWWw-1" value="" style="ellipse;whiteSpace=wrap;html=1;aspect=fixed;" parent="1" vertex="1">
          <mxGeometry x="80" y="240" width="80" height="80" as="geometry" />
        </mxCell>
        <mxCell id="Ng7Id-YGI_FBTDMfPWWw-14" style="edgeStyle=orthogonalEdgeStyle;rounded=0;orthogonalLoop=1;jettySize=auto;html=1;exitX=1;exitY=0.5;exitDx=0;exitDy=0;entryX=0;entryY=0.5;entryDx=0;entryDy=0;" parent="1" source="Ng7Id-YGI_FBTDMfPWWw-3" target="Ng7Id-YGI_FBTDMfPWWw-9" edge="1">
          <mxGeometry relative="1" as="geometry" />
        </mxCell>
        <mxCell id="Ng7Id-YGI_FBTDMfPWWw-3" value="Включить режим настройки" style="rounded=1;whiteSpace=wrap;html=1;" parent="1" vertex="1">
          <mxGeometry x="200" y="250" width="120" height="60" as="geometry" />
        </mxCell>
        <mxCell id="Ng7Id-YGI_FBTDMfPWWw-9" value="Сбор данных" style="rounded=1;whiteSpace=wrap;html=1;" parent="1" vertex="1">
          <mxGeometry x="360" y="250" width="120" height="60" as="geometry" />
        </mxCell>
        <mxCell id="Ng7Id-YGI_FBTDMfPWWw-17" style="edgeStyle=orthogonalEdgeStyle;rounded=0;orthogonalLoop=1;jettySize=auto;html=1;exitX=0.5;exitY=1;exitDx=0;exitDy=0;entryX=1;entryY=0.5;entryDx=0;entryDy=0;entryPerimeter=0;" parent="1" source="Ng7Id-YGI_FBTDMfPWWw-12" target="Ng7Id-YGI_FBTDMfPWWw-24" edge="1">
          <mxGeometry relative="1" as="geometry">
            <mxPoint x="580" y="410" as="targetPoint" />
          </mxGeometry>
        </mxCell>
        <mxCell id="Ng7Id-YGI_FBTDMfPWWw-30" style="edgeStyle=orthogonalEdgeStyle;rounded=0;orthogonalLoop=1;jettySize=auto;html=1;exitX=0.5;exitY=1;exitDx=0;exitDy=0;entryX=1;entryY=0.5;entryDx=0;entryDy=0;entryPerimeter=0;" parent="1" source="Ng7Id-YGI_FBTDMfPWWw-12" target="Ng7Id-YGI_FBTDMfPWWw-31" edge="1">
          <mxGeometry relative="1" as="geometry">
            <mxPoint x="640" y="530" as="targetPoint" />
          </mxGeometry>
        </mxCell>
        <mxCell id="Ng7Id-YGI_FBTDMfPWWw-12" value="" style="shape=datastore;whiteSpace=wrap;html=1;" parent="1" vertex="1">
          <mxGeometry x="610" y="250" width="60" height="60" as="geometry" />
        </mxCell>
        <mxCell id="Ng7Id-YGI_FBTDMfPWWw-20" style="edgeStyle=orthogonalEdgeStyle;rounded=0;orthogonalLoop=1;jettySize=auto;html=1;exitX=0.5;exitY=0;exitDx=0;exitDy=0;entryX=0.5;entryY=1;entryDx=0;entryDy=0;" parent="1" source="Ng7Id-YGI_FBTDMfPWWw-16" target="Ng7Id-YGI_FBTDMfPWWw-9" edge="1">
          <mxGeometry relative="1" as="geometry" />
        </mxCell>
        <mxCell id="Ng7Id-YGI_FBTDMfPWWw-27" style="edgeStyle=orthogonalEdgeStyle;rounded=0;orthogonalLoop=1;jettySize=auto;html=1;exitX=0;exitY=0.5;exitDx=0;exitDy=0;entryX=0.5;entryY=0;entryDx=0;entryDy=0;" parent="1" source="Ng7Id-YGI_FBTDMfPWWw-16" target="Ng7Id-YGI_FBTDMfPWWw-26" edge="1">
          <mxGeometry relative="1" as="geometry" />
        </mxCell>
        <mxCell id="Ng7Id-YGI_FBTDMfPWWw-16" value="Данных достаточно?" style="rhombus;whiteSpace=wrap;html=1;" parent="1" vertex="1">
          <mxGeometry x="365" y="360" width="110" height="100" as="geometry" />
        </mxCell>
        <mxCell id="Ng7Id-YGI_FBTDMfPWWw-19" value="Нет" style="text;html=1;align=center;verticalAlign=middle;whiteSpace=wrap;rounded=0;" parent="1" vertex="1">
          <mxGeometry x="370" y="320" width="60" height="30" as="geometry" />
        </mxCell>
        <mxCell id="Ng7Id-YGI_FBTDMfPWWw-23" style="edgeStyle=orthogonalEdgeStyle;rounded=0;orthogonalLoop=1;jettySize=auto;html=1;exitX=1;exitY=0.5;exitDx=0;exitDy=0;exitPerimeter=0;entryX=0;entryY=0.5;entryDx=0;entryDy=0;" parent="1" source="Ng7Id-YGI_FBTDMfPWWw-21" target="Ng7Id-YGI_FBTDMfPWWw-12" edge="1">
          <mxGeometry relative="1" as="geometry" />
        </mxCell>
        <mxCell id="Ng7Id-YGI_FBTDMfPWWw-21" value="" style="points=[[0.145,0.145,0],[0.5,0,0],[0.855,0.145,0],[1,0.5,0],[0.855,0.855,0],[0.5,1,0],[0.145,0.855,0],[0,0.5,0]];shape=mxgraph.bpmn.event;html=1;verticalLabelPosition=bottom;labelBackgroundColor=#ffffff;verticalAlign=top;align=center;perimeter=ellipsePerimeter;outlineConnect=0;aspect=fixed;outline=standard;symbol=message;" parent="1" vertex="1">
          <mxGeometry x="520" y="255" width="50" height="50" as="geometry" />
        </mxCell>
        <mxCell id="Ng7Id-YGI_FBTDMfPWWw-22" style="edgeStyle=orthogonalEdgeStyle;rounded=0;orthogonalLoop=1;jettySize=auto;html=1;exitX=1;exitY=0.5;exitDx=0;exitDy=0;entryX=0;entryY=0.5;entryDx=0;entryDy=0;entryPerimeter=0;" parent="1" source="Ng7Id-YGI_FBTDMfPWWw-9" target="Ng7Id-YGI_FBTDMfPWWw-21" edge="1">
          <mxGeometry relative="1" as="geometry" />
        </mxCell>
        <mxCell id="Ng7Id-YGI_FBTDMfPWWw-25" style="edgeStyle=orthogonalEdgeStyle;rounded=0;orthogonalLoop=1;jettySize=auto;html=1;exitX=0;exitY=0.5;exitDx=0;exitDy=0;exitPerimeter=0;entryX=1;entryY=0.5;entryDx=0;entryDy=0;" parent="1" source="Ng7Id-YGI_FBTDMfPWWw-24" target="Ng7Id-YGI_FBTDMfPWWw-16" edge="1">
          <mxGeometry relative="1" as="geometry" />
        </mxCell>
        <mxCell id="Ng7Id-YGI_FBTDMfPWWw-24" value="" style="points=[[0.145,0.145,0],[0.5,0,0],[0.855,0.145,0],[1,0.5,0],[0.855,0.855,0],[0.5,1,0],[0.145,0.855,0],[0,0.5,0]];shape=mxgraph.bpmn.event;html=1;verticalLabelPosition=bottom;labelBackgroundColor=#ffffff;verticalAlign=top;align=center;perimeter=ellipsePerimeter;outlineConnect=0;aspect=fixed;outline=standard;symbol=message;" parent="1" vertex="1">
          <mxGeometry x="520" y="385" width="50" height="50" as="geometry" />
        </mxCell>
        <mxCell id="Ng7Id-YGI_FBTDMfPWWw-29" style="edgeStyle=orthogonalEdgeStyle;rounded=0;orthogonalLoop=1;jettySize=auto;html=1;exitX=0.5;exitY=1;exitDx=0;exitDy=0;entryX=0.5;entryY=0;entryDx=0;entryDy=0;" parent="1" source="Ng7Id-YGI_FBTDMfPWWw-26" target="Ng7Id-YGI_FBTDMfPWWw-28" edge="1">
          <mxGeometry relative="1" as="geometry" />
        </mxCell>
        <mxCell id="Ng7Id-YGI_FBTDMfPWWw-26" value="Выбор активности" style="rounded=1;whiteSpace=wrap;html=1;" parent="1" vertex="1">
          <mxGeometry x="200" y="490" width="120" height="60" as="geometry" />
        </mxCell>
        <mxCell id="Ng7Id-YGI_FBTDMfPWWw-34" style="edgeStyle=orthogonalEdgeStyle;rounded=0;orthogonalLoop=1;jettySize=auto;html=1;exitX=0;exitY=0.5;exitDx=0;exitDy=0;entryX=1;entryY=0.5;entryDx=0;entryDy=0;" parent="1" source="Ng7Id-YGI_FBTDMfPWWw-28" target="Ng7Id-YGI_FBTDMfPWWw-33" edge="1">
          <mxGeometry relative="1" as="geometry" />
        </mxCell>
        <mxCell id="Ng7Id-YGI_FBTDMfPWWw-28" value="Анализ данных" style="rounded=1;whiteSpace=wrap;html=1;" parent="1" vertex="1">
          <mxGeometry x="370" y="700" width="120" height="60" as="geometry" />
        </mxCell>
        <mxCell id="Ng7Id-YGI_FBTDMfPWWw-32" style="edgeStyle=orthogonalEdgeStyle;rounded=0;orthogonalLoop=1;jettySize=auto;html=1;exitX=0;exitY=0.5;exitDx=0;exitDy=0;exitPerimeter=0;entryX=1;entryY=0.5;entryDx=0;entryDy=0;" parent="1" source="Ng7Id-YGI_FBTDMfPWWw-31" target="Ng7Id-YGI_FBTDMfPWWw-28" edge="1">
          <mxGeometry relative="1" as="geometry" />
        </mxCell>
        <mxCell id="Ng7Id-YGI_FBTDMfPWWw-31" value="" style="points=[[0.145,0.145,0],[0.5,0,0],[0.855,0.145,0],[1,0.5,0],[0.855,0.855,0],[0.5,1,0],[0.145,0.855,0],[0,0.5,0]];shape=mxgraph.bpmn.event;html=1;verticalLabelPosition=bottom;labelBackgroundColor=#ffffff;verticalAlign=top;align=center;perimeter=ellipsePerimeter;outlineConnect=0;aspect=fixed;outline=standard;symbol=message;" parent="1" vertex="1">
          <mxGeometry x="520" y="705" width="50" height="50" as="geometry" />
        </mxCell>
        <mxCell id="Ng7Id-YGI_FBTDMfPWWw-33" value="Формирование рекомендаций" style="rounded=1;whiteSpace=wrap;html=1;" parent="1" vertex="1">
          <mxGeometry x="210" y="700" width="110" height="60" as="geometry" />
        </mxCell>
        <mxCell id="Ng7Id-YGI_FBTDMfPWWw-35" value="" style="points=[[0.145,0.145,0],[0.5,0,0],[0.855,0.145,0],[1,0.5,0],[0.855,0.855,0],[0.5,1,0],[0.145,0.855,0],[0,0.5,0]];shape=mxgraph.bpmn.event;html=1;verticalLabelPosition=bottom;labelBackgroundColor=#ffffff;verticalAlign=top;align=center;perimeter=ellipsePerimeter;outlineConnect=0;aspect=fixed;outline=throwing;symbol=message;" parent="1" vertex="1">
          <mxGeometry x="95" y="705" width="50" height="50" as="geometry" />
        </mxCell>
        <mxCell id="Ng7Id-YGI_FBTDMfPWWw-36" style="edgeStyle=orthogonalEdgeStyle;rounded=0;orthogonalLoop=1;jettySize=auto;html=1;exitX=0;exitY=0.5;exitDx=0;exitDy=0;entryX=1;entryY=0.5;entryDx=0;entryDy=0;entryPerimeter=0;" parent="1" source="Ng7Id-YGI_FBTDMfPWWw-33" target="Ng7Id-YGI_FBTDMfPWWw-35" edge="1">
          <mxGeometry relative="1" as="geometry" />
        </mxCell>
        <mxCell id="Ng7Id-YGI_FBTDMfPWWw-37" value="Составление отчета" style="text;html=1;align=center;verticalAlign=middle;whiteSpace=wrap;rounded=0;" parent="1" vertex="1">
          <mxGeometry x="85" y="675" width="60" height="30" as="geometry" />
        </mxCell>
        <mxCell id="Ng7Id-YGI_FBTDMfPWWw-38" value="Загрузка данных" style="text;html=1;align=center;verticalAlign=middle;whiteSpace=wrap;rounded=0;" parent="1" vertex="1">
          <mxGeometry x="515" y="220" width="60" height="30" as="geometry" />
        </mxCell>
        <mxCell id="Ng7Id-YGI_FBTDMfPWWw-39" value="Отправка данных" style="text;html=1;align=center;verticalAlign=middle;whiteSpace=wrap;rounded=0;" parent="1" vertex="1">
          <mxGeometry x="515" y="355" width="60" height="30" as="geometry" />
        </mxCell>
        <mxCell id="Ng7Id-YGI_FBTDMfPWWw-40" value="Отправка данных" style="text;html=1;align=center;verticalAlign=middle;whiteSpace=wrap;rounded=0;" parent="1" vertex="1">
          <mxGeometry x="515" y="670" width="60" height="30" as="geometry" />
        </mxCell>
      </root>
    </mxGraphModel>
  </diagram>
</mxfile>
